<?xml version="1.0" encoding="UTF-8"?>
<svg xmlns="http://www.w3.org/2000/svg" version="1.1" viewBox="0 0 500 500">
    <defs>
        <style>
            .cls-1 {
                fill: #4f4b4c;
            }

            .cls-1,
            .cls-2,
            .cls-3,
            .cls-4,
            .cls-5 {
                stroke-width: 0px;
            }

            .cls-2 {
                fill: #4f4b4c;
            }

            .cls-6 {
                fill: #fff;
            }

            .cls-6,
            .cls-7,
            .cls-8,
            .cls-9,
            .cls-10 {
                stroke: #4f4b4c;
                stroke-linecap: round;
                stroke-linejoin: round;
            }

            .cls-6,
            .cls-7,
            .cls-10 {
                stroke-width: 12px;
            }

            .cls-7 {
                opacity: .21;
            }

            .cls-7,
            .cls-8,
            .cls-10 {
                fill: none;
            }

            .cls-8,
            .cls-9 {
                stroke-width: 18px;
            }

            .cls-3 {
                fill: #6d6e71;
            }

            .cls-4 {
                fill: #e6e7e8;
            }

            .cls-9 {
                fill: #a7a9ac;
            }

            .cls-11 {
                display: none;
            }

            .cls-5 {
                fill: #d1d3d4;
            }
        </style>
    </defs>
    <g id="Layer_1" data-name="Layer 1">
        <g>
            <g id="_Radial_Repeat_" data-name="&amp;lt;Radial Repeat&amp;gt;">
                <rect class="cls-2" x="238.44" y="382.99" width="29.6" height="66.46" rx="14.8" ry="14.8"
                    transform="translate(514.56 827.42) rotate(178.88)" />
            </g>
            <g id="_Radial_Repeat_-2" data-name="&amp;lt;Radial Repeat&amp;gt;">
                <rect class="cls-2" x="119.96" y="336.6" width="29.6" height="66.46" rx="14.8" ry="14.8"
                    transform="translate(-24.47 729.8) rotate(-136.12)" />
            </g>
            <g id="_Radial_Repeat_-3" data-name="&amp;lt;Radial Repeat&amp;gt;">
                <rect class="cls-2" x="68.98" y="220.01" width="29.6" height="66.46" rx="14.8" ry="14.8"
                    transform="translate(-167.78 341.95) rotate(-91.12)" />
            </g>
            <g id="_Radial_Repeat_-4" data-name="&amp;lt;Radial Repeat&amp;gt;">
                <rect class="cls-2" x="115.37" y="101.53" width="29.6" height="66.46" rx="14.8" ry="14.8"
                    transform="translate(-57.19 135.17) rotate(-46.12)" />
            </g>
            <g id="_Radial_Repeat_-5" data-name="&amp;lt;Radial Repeat&amp;gt;">
                <rect class="cls-2" x="231.95" y="50.55" width="29.6" height="66.46" rx="14.8" ry="14.8"
                    transform="translate(-1.59 4.83) rotate(-1.12)" />
            </g>
            <g id="_Radial_Repeat_-6" data-name="&amp;lt;Radial Repeat&amp;gt;">
                <rect class="cls-2" x="350.44" y="96.94" width="29.6" height="66.46" rx="14.8" ry="14.8"
                    transform="translate(192.22 -216.83) rotate(43.88)" />
            </g>
            <g id="_Radial_Repeat_-7" data-name="&amp;lt;Radial Repeat&amp;gt;">
                <rect class="cls-2" x="401.42" y="213.53" width="29.6" height="66.46" rx="14.8" ry="14.8"
                    transform="translate(654.81 -174.2) rotate(88.88)" />
            </g>
            <g id="_Radial_Repeat_-8" data-name="&amp;lt;Radial Repeat&amp;gt;">
                <rect class="cls-2" x="355.03" y="332.01" width="29.6" height="66.46" rx="14.8" ry="14.8"
                    transform="translate(889.44 351.86) rotate(133.88)" />
            </g>
        </g>
        <path class="cls-9"
            d="M346.72,302.93s-25.8,43.13-70.18,54.08c-42.58,10.51-90.23-5.93-116.79-43.74-23.35-33.25-25.86-76.59-8.93-111.38,15.94-32.76,43.99-47.44,53.48-51.9-20.81,41.03-14.49,90.68,15.76,124.67,31.43,35.31,82.54,46.8,126.65,28.28h0Z" />
        <path class="cls-6" d="M599.8,335.72" />
        <path class="cls-4" d="M174.19,229.28c2.62,0,5.12-2.3,5-5s-2.2-5-5-5c-2.62,0-5.12,2.3-5,5s2.2,5,5,5h0Z" />
        <path class="cls-1"
            d="M163.78,277.85c1.96,0,3.84-1.72,3.75-3.75s-1.65-3.75-3.75-3.75c-1.96,0-3.84,1.72-3.75,3.75s1.65,3.75,3.75,3.75h0Z" />
        <path class="cls-5"
            d="M250.01,340.1c5.23,0,10.24-4.6,10-10s-4.39-10-10-10c-5.23,0-10.24,4.6-10,10s4.39,10,10,10h0Z" />
        <path class="cls-3"
            d="M201.21,304.95c3.92,0,7.68-3.45,7.5-7.5s-3.3-7.5-7.5-7.5c-3.92,0-7.68,3.45-7.5,7.5s3.3,7.5,7.5,7.5h0Z" />
    </g>
    <g id="Layer_2" data-name="Layer 2">
        <path class="cls-8"
            d="M360.97,268.26c-35.79,24.57-84.08,20.24-114.23-9.65-31.49-31.22-35.07-82.28-7.56-118.4,4.83-.59,58.24-6.17,95.64,35.66,34.65,38.76,27.18,86.46,26.14,92.38Z" />
        <path class="cls-10" d="M544.28,273.64" />
    </g>
    <g id="Layer_3" data-name="Layer 3" class="cls-11">
        <circle class="cls-7" cx="250" cy="250" r="100" />
    </g>
</svg>